STARTFONT 2.1
FONT -misc-pisca-medium-r-normal--19-190-72-72-p-100-iso10646-1
SIZE 19 72 72
FONTBOUNDINGBOX 31 32 -2 -6
STARTPROPERTIES 17
FOUNDRY "misc"
FAMILY_NAME "pisca"
WEIGHT_NAME "medium"
SLANT "r"
SETWIDTH_NAME "normal"
SPACING "p"
CHARSET_REGISTRY "iso10646"
CHARSET_ENCODING "1"
FONT_ASCENT 23
FONT_DESCENT 6
_GBDFED_INFO "Edited with gbdfed 1.6."
POINT_SIZE 190
PIXEL_SIZE 19
ADD_STYLE_NAME ""
RESOLUTION_X 72
RESOLUTION_Y 72
AVERAGE_WIDTH 100
ENDPROPERTIES
CHARS 104
STARTCHAR C040
ENCODING 32
SWIDTH 368 0
DWIDTH 7 0
BBX 0 0 0 0
BITMAP
ENDCHAR
STARTCHAR C056
ENCODING 33
SWIDTH 368 0
DWIDTH 7 0
BBX 3 21 0 0
BITMAP
E0
E0
E0
E0
E0
E0
E0
E0
E0
E0
E0
E0
E0
E0
E0
E0
00
00
E0
E0
E0
ENDCHAR
STARTCHAR C111
ENCODING 34
SWIDTH 631 0
DWIDTH 12 0
BBX 8 8 0 13
BITMAP
E7
E7
E7
E7
E7
E7
E7
E7
ENDCHAR
STARTCHAR C111
ENCODING 35
SWIDTH 684 0
DWIDTH 13 0
BBX 13 21 0 0
BITMAP
3060
3060
3060
3060
FFF8
FFF8
3060
3060
3060
3060
3060
3060
3060
3060
3060
FFF8
FFF8
3060
3060
3060
3060
ENDCHAR
STARTCHAR C123
ENCODING 36
SWIDTH 1000 0
DWIDTH 19 0
BBX 15 25 0 -2
BITMAP
0180
0180
0FF0
3FFC
79BC
E180
E180
E180
E180
F180
7D80
3F80
0FE0
03F8
01FC
019E
018E
018E
018E
019C
F1BC
FFF8
3FE0
0180
0180
ENDCHAR
STARTCHAR 0025
ENCODING 37
SWIDTH 1210 0
DWIDTH 23 0
BBX 21 23 2 -1
BITMAP
0000E0
3E00E0
7F01C0
E38380
C18380
C18700
C18E00
C18E00
E39C00
7F3800
3E3800
007000
00E3E0
00E7F0
01CE38
038C18
038C18
070C18
0E0C18
0E0E38
1C07F0
3803E0
380000
ENDCHAR
STARTCHAR 0026
ENCODING 38
SWIDTH 1157 0
DWIDTH 22 0
BBX 19 21 2 0
BITMAP
07C000
1FE000
3C7000
383800
383800
383800
387000
1CF000
0FE000
078000
1F80C0
3DC1C0
78E1C0
707380
E03B80
E01F00
E00F00
F01F80
787FC0
3FF9E0
0FE0C0
ENDCHAR
STARTCHAR C111
ENCODING 39
SWIDTH 368 0
DWIDTH 7 0
BBX 3 8 0 13
BITMAP
E0
E0
E0
E0
E0
E0
E0
E0
ENDCHAR
STARTCHAR char40
ENCODING 40
SWIDTH 473 0
DWIDTH 9 0
BBX 5 23 0 -1
BITMAP
18
38
30
70
70
70
E0
E0
E0
E0
E0
E0
E0
E0
E0
E0
E0
E0
70
70
70
18
18
ENDCHAR
STARTCHAR char40
ENCODING 41
SWIDTH 473 0
DWIDTH 9 0
BBX 5 23 0 -1
BITMAP
C0
E0
60
70
70
70
38
38
38
38
38
38
38
38
38
38
38
38
70
70
70
C0
C0
ENDCHAR
STARTCHAR 002A
ENCODING 42
SWIDTH 842 0
DWIDTH 16 0
BBX 12 12 1 11
BITMAP
0600
0600
0600
C630
F6F0
7FE0
1F80
0F00
1F80
39C0
70E0
2040
ENDCHAR
STARTCHAR 002B
ENCODING 43
SWIDTH 894 0
DWIDTH 17 0
BBX 13 13 0 3
BITMAP
0700
0700
0700
0700
0700
FFF8
FFF8
FFF8
0700
0700
0700
0700
0700
ENDCHAR
STARTCHAR C054
ENCODING 44
SWIDTH 368 0
DWIDTH 7 0
BBX 4 5 0 -2
BITMAP
70
70
70
E0
C0
ENDCHAR
STARTCHAR C055
ENCODING 45
SWIDTH 894 0
DWIDTH 17 0
BBX 13 3 0 8
BITMAP
FFF8
FFF8
FFF8
ENDCHAR
STARTCHAR C056
ENCODING 46
SWIDTH 421 0
DWIDTH 8 0
BBX 4 4 0 0
BITMAP
60
F0
F0
60
ENDCHAR
STARTCHAR C111
ENCODING 47
SWIDTH 894 0
DWIDTH 17 0
BBX 14 24 -1 -2
BITMAP
001C
001C
0038
0038
0070
0070
00E0
00E0
01C0
01C0
0380
0380
0700
0700
0E00
0E00
1C00
1C00
3800
3800
7000
7000
E000
E000
ENDCHAR
STARTCHAR C060
ENCODING 48
SWIDTH 842 0
DWIDTH 16 0
BBX 13 21 0 0
BITMAP
0F80
3FE0
78F0
7070
E038
E038
E038
E038
E038
E038
E038
E038
E038
E038
E038
E038
E038
7070
78F0
3FE0
0F80
ENDCHAR
STARTCHAR C061
ENCODING 49
SWIDTH 842 0
DWIDTH 16 0
BBX 11 21 0 0
BITMAP
0E00
3E00
FE00
EE00
0E00
0E00
0E00
0E00
0E00
0E00
0E00
0E00
0E00
0E00
0E00
0E00
0E00
0E00
0E00
FFE0
FFE0
ENDCHAR
STARTCHAR C062
ENCODING 50
SWIDTH 842 0
DWIDTH 16 0
BBX 13 21 0 0
BITMAP
1F80
7FE0
F0F0
C070
0038
0038
0038
0038
0038
0070
00E0
01C0
0380
0700
0E00
1C00
3800
7000
E000
FFF8
FFF8
ENDCHAR
STARTCHAR C063
ENCODING 51
SWIDTH 842 0
DWIDTH 16 0
BBX 13 21 0 0
BITMAP
1FC0
7FE0
F0F0
C070
0038
0038
0038
0070
00E0
0FC0
0FE0
00F0
0070
0038
0038
0038
0038
C070
F0F0
7FE0
1F80
ENDCHAR
STARTCHAR C064
ENCODING 52
SWIDTH 842 0
DWIDTH 16 0
BBX 13 21 0 0
BITMAP
0600
0E00
0E00
0C00
1C00
1C00
1870
3870
3870
3070
7070
7070
6070
FFFC
FFFC
0070
0070
0070
0070
0070
0070
ENDCHAR
STARTCHAR C065
ENCODING 53
SWIDTH 842 0
DWIDTH 16 0
BBX 13 21 0 0
BITMAP
FFF0
FFF0
E000
E000
E000
E000
E000
EF80
FFE0
F0F0
0070
0038
0038
0038
0038
0038
0038
C070
F0F0
7FE0
1FC0
ENDCHAR
STARTCHAR C066
ENCODING 54
SWIDTH 842 0
DWIDTH 16 0
BBX 13 21 0 0
BITMAP
0F80
3FE0
78E0
7000
E000
E000
E000
E000
EF80
FFE0
F8F0
F078
E038
E038
E038
E038
E038
7078
78F0
3FE0
0F80
ENDCHAR
STARTCHAR C067
ENCODING 55
SWIDTH 842 0
DWIDTH 16 0
BBX 13 21 0 0
BITMAP
FFF0
FFF0
0070
0060
00E0
00E0
00C0
01C0
01C0
0180
0380
0380
0300
0700
0700
0600
0E00
0E00
0C00
1C00
1C00
ENDCHAR
STARTCHAR C070
ENCODING 56
SWIDTH 842 0
DWIDTH 16 0
BBX 13 21 0 0
BITMAP
0F80
3FE0
78F0
7070
E038
E038
E038
7030
7870
1FE0
3FC0
70F0
6070
E038
E038
E038
E038
7070
78F0
3FE0
0F80
ENDCHAR
STARTCHAR C071
ENCODING 57
SWIDTH 842 0
DWIDTH 16 0
BBX 13 21 0 0
BITMAP
0F80
3FE0
78F0
F070
E038
E038
E038
E038
E038
7078
78F8
1FF8
0FB8
0038
0030
0070
00E0
01C0
0780
3F00
3C00
ENDCHAR
STARTCHAR 003A
ENCODING 58
SWIDTH 368 0
DWIDTH 7 0
BBX 4 15 2 0
BITMAP
60
F0
F0
60
00
00
00
00
00
00
00
60
F0
F0
60
ENDCHAR
STARTCHAR 003B
ENCODING 59
SWIDTH 315 0
DWIDTH 6 0
BBX 4 19 2 -4
BITMAP
60
F0
F0
60
00
00
00
00
00
00
00
00
60
F0
F0
60
60
C0
C0
ENDCHAR
STARTCHAR 003C
ENCODING 60
SWIDTH 684 0
DWIDTH 13 0
BBX 11 12 2 4
BITMAP
0060
01E0
07E0
1F80
7E00
F000
F000
7E00
1F80
07E0
01E0
0060
ENDCHAR
STARTCHAR 003D
ENCODING 61
SWIDTH 789 0
DWIDTH 15 0
BBX 11 8 2 6
BITMAP
FFE0
FFE0
0000
0000
0000
0000
FFE0
FFE0
ENDCHAR
STARTCHAR 003C
ENCODING 62
SWIDTH 684 0
DWIDTH 13 0
BBX 11 12 2 4
BITMAP
C000
F000
FC00
3F00
0FC0
01E0
01E0
0FC0
3F00
FC00
F000
C000
ENDCHAR
STARTCHAR 003F
ENCODING 63
SWIDTH 736 0
DWIDTH 14 0
BBX 12 21 1 0
BITMAP
1F80
7FE0
F9E0
6070
0070
0070
00F0
01E0
03C0
0780
0F00
0E00
0E00
0E00
0E00
0000
0000
0000
0E00
0E00
0E00
ENDCHAR
STARTCHAR 0040
ENCODING 64
SWIDTH 1631 0
DWIDTH 31 0
BBX 27 27 2 -6
BITMAP
003FC000
01FFF800
03F0FE00
0F800F00
1E000780
3C000380
381F81C0
703FE1C0
7070E0E0
70E0E0E0
E0E0E0E0
E0C0E0E0
E1C0E0E0
E1C0E0E0
E1C0E0E0
E0C0E0C0
E0E0E1C0
70E1F3C0
707F3F80
703E1F00
38000000
1C000000
1E000000
0F800000
03F0F000
01FFF800
003FE000
ENDCHAR
STARTCHAR C101
ENCODING 65
SWIDTH 947 0
DWIDTH 18 0
BBX 16 21 -1 0
BITMAP
03C0
03C0
03C0
07E0
07E0
0660
0E70
0E70
0C30
1C38
1C38
1818
381C
3FFC
3FFC
700E
700E
6006
E007
E007
E007
ENDCHAR
STARTCHAR C102
ENCODING 66
SWIDTH 947 0
DWIDTH 18 0
BBX 14 21 0 0
BITMAP
FF80
FFE0
E0F0
E070
E038
E038
E038
E070
E0E0
FFC0
FFF0
E078
E038
E01C
E01C
E01C
E01C
E038
E078
FFF0
FFC0
ENDCHAR
STARTCHAR C103
ENCODING 67
SWIDTH 947 0
DWIDTH 18 0
BBX 15 21 0 0
BITMAP
03F0
0FFC
1E1C
3800
7000
7000
E000
E000
E000
E000
E000
E000
E000
E000
E000
7000
7000
3800
1E0E
0FFE
03F8
ENDCHAR
STARTCHAR C104
ENCODING 68
SWIDTH 1000 0
DWIDTH 19 0
BBX 15 21 0 0
BITMAP
FF80
FFE0
E0F0
E038
E01C
E01C
E00E
E00E
E00E
E00E
E00E
E00E
E00E
E00E
E00E
E01C
E01C
E038
E0F0
FFE0
FF80
ENDCHAR
STARTCHAR C105
ENCODING 69
SWIDTH 842 0
DWIDTH 16 0
BBX 12 21 0 0
BITMAP
FFF0
FFF0
E000
E000
E000
E000
E000
E000
E000
FFC0
FFC0
E000
E000
E000
E000
E000
E000
E000
E000
FFF0
FFF0
ENDCHAR
STARTCHAR C106
ENCODING 70
SWIDTH 842 0
DWIDTH 16 0
BBX 12 21 0 0
BITMAP
FFF0
FFF0
E000
E000
E000
E000
E000
E000
E000
FFC0
FFC0
E000
E000
E000
E000
E000
E000
E000
E000
E000
E000
ENDCHAR
STARTCHAR C107
ENCODING 71
SWIDTH 1052 0
DWIDTH 20 0
BBX 16 21 0 0
BITMAP
03F8
0FFE
1E0E
3800
7000
7000
E000
E000
E000
E07F
E07F
E007
E007
E007
E007
7007
7007
3807
1E0F
0FFF
03F8
ENDCHAR
STARTCHAR C110
ENCODING 72
SWIDTH 894 0
DWIDTH 17 0
BBX 13 21 0 0
BITMAP
E038
E038
E038
E038
E038
E038
E038
E038
E038
FFF8
FFF8
E038
E038
E038
E038
E038
E038
E038
E038
E038
E038
ENDCHAR
STARTCHAR C111
ENCODING 73
SWIDTH 421 0
DWIDTH 8 0
BBX 3 21 1 0
BITMAP
E0
E0
E0
E0
E0
E0
E0
E0
E0
E0
E0
E0
E0
E0
E0
E0
E0
E0
E0
E0
E0
ENDCHAR
STARTCHAR C112
ENCODING 74
SWIDTH 526 0
DWIDTH 10 0
BBX 6 24 -1 -3
BITMAP
1C
1C
1C
1C
1C
1C
1C
1C
1C
1C
1C
1C
1C
1C
1C
1C
1C
1C
1C
1C
1C
1C
F8
F0
ENDCHAR
STARTCHAR C113
ENCODING 75
SWIDTH 894 0
DWIDTH 17 0
BBX 15 21 0 0
BITMAP
E01C
E038
E070
E0E0
E1C0
E380
E700
EE00
FC00
F800
F800
FC00
EE00
E700
E380
E1C0
E0E0
E070
E038
E01C
E00E
ENDCHAR
STARTCHAR C114
ENCODING 76
SWIDTH 789 0
DWIDTH 15 0
BBX 12 21 0 0
BITMAP
E000
E000
E000
E000
E000
E000
E000
E000
E000
E000
E000
E000
E000
E000
E000
E000
E000
E000
E000
FFF0
FFF0
ENDCHAR
STARTCHAR C115
ENCODING 77
SWIDTH 1210 0
DWIDTH 23 0
BBX 19 21 0 0
BITMAP
F001E0
F001E0
F803E0
F803E0
FC07E0
EC06E0
EC06E0
EE0EE0
E60CE0
E60CE0
E71CE0
E318E0
E318E0
E3B8E0
E1B0E0
E1B0E0
E1F0E0
E0E0E0
E0E0E0
E000E0
E000E0
ENDCHAR
STARTCHAR C116
ENCODING 78
SWIDTH 947 0
DWIDTH 18 0
BBX 14 21 0 0
BITMAP
F01C
F01C
F81C
F81C
FC1C
EC1C
EE1C
E61C
E71C
E31C
E39C
E19C
E1DC
E0DC
E0FC
E07C
E07C
E03C
E03C
E01C
E01C
ENDCHAR
STARTCHAR C117
ENCODING 79
SWIDTH 1157 0
DWIDTH 22 0
BBX 18 21 0 0
BITMAP
03F000
0FFC00
1E1E00
380700
700380
700380
E001C0
E001C0
E001C0
E001C0
E001C0
E001C0
E001C0
E001C0
E001C0
700380
700380
380700
1E1E00
0FFC00
03F000
ENDCHAR
STARTCHAR C120
ENCODING 80
SWIDTH 947 0
DWIDTH 18 0
BBX 14 21 0 0
BITMAP
FFC0
FFF0
E078
E038
E01C
E01C
E01C
E01C
E01C
E01C
E038
E078
FFF0
FFC0
E000
E000
E000
E000
E000
E000
E000
ENDCHAR
STARTCHAR C121
ENCODING 81
SWIDTH 1157 0
DWIDTH 22 0
BBX 19 24 0 -3
BITMAP
03F000
0FFC00
1E1E00
380700
700380
700380
E001C0
E001C0
E001C0
E001C0
E001C0
E001C0
E001C0
E001C0
E001C0
700380
700380
380700
1E1E00
0FFE00
03FF80
0007E0
0001C0
000080
ENDCHAR
STARTCHAR C122
ENCODING 82
SWIDTH 947 0
DWIDTH 18 0
BBX 14 21 0 0
BITMAP
FFC0
FFF0
E078
E038
E01C
E01C
E01C
E01C
E01C
E01C
E038
E078
FFF0
FFE0
E0E0
E070
E070
E038
E038
E01C
E01C
ENDCHAR
STARTCHAR C123
ENCODING 83
SWIDTH 1000 0
DWIDTH 19 0
BBX 15 21 0 0
BITMAP
0FF0
3FFC
783C
E000
E000
E000
E000
F000
7C00
3F80
0FE0
03F8
007C
001E
000E
000E
000E
001C
F03C
FFF8
3FE0
ENDCHAR
STARTCHAR C124
ENCODING 84
SWIDTH 894 0
DWIDTH 17 0
BBX 15 21 -1 0
BITMAP
FFFE
FFFE
0380
0380
0380
0380
0380
0380
0380
0380
0380
0380
0380
0380
0380
0380
0380
0380
0380
0380
0380
ENDCHAR
STARTCHAR C125
ENCODING 85
SWIDTH 1000 0
DWIDTH 19 0
BBX 15 21 0 0
BITMAP
E00E
E00E
E00E
E00E
E00E
E00E
E00E
E00E
E00E
E00E
E00E
E00E
E00E
E00E
E00E
E00E
E00E
701C
783C
3FF8
0FE0
ENDCHAR
STARTCHAR C126
ENCODING 86
SWIDTH 947 0
DWIDTH 18 0
BBX 15 21 -1 0
BITMAP
E00E
E00E
E00E
E00E
701C
701C
701C
701C
3838
3838
3838
1C70
1C70
0C60
0EE0
0EE0
06C0
07C0
07C0
0380
0380
ENDCHAR
STARTCHAR C127
ENCODING 87
SWIDTH 1315 0
DWIDTH 25 0
BBX 23 21 -1 0
BITMAP
E0380E
E0380E
E0380E
E0380E
60380C
707C1C
707C1C
707C1C
306C18
306C18
38EE38
38EE38
38EE38
18C630
18C630
1DC770
1DC770
0D8360
0F83E0
0F83E0
0F83E0
ENDCHAR
STARTCHAR C130
ENCODING 88
SWIDTH 947 0
DWIDTH 18 0
BBX 14 21 -1 0
BITMAP
E01C
E01C
7038
7038
3870
3870
1CE0
1CE0
0FC0
0FC0
0780
0FC0
0FC0
1CE0
1CE0
3870
3870
7038
7038
E01C
E01C
ENDCHAR
STARTCHAR C131
ENCODING 89
SWIDTH 947 0
DWIDTH 18 0
BBX 15 21 -1 0
BITMAP
E00E
E00E
E00E
701C
701C
3838
3838
1C70
1C70
0EE0
0EE0
07C0
07C0
0380
0380
0380
0380
0380
0380
0380
0380
ENDCHAR
STARTCHAR C132
ENCODING 90
SWIDTH 789 0
DWIDTH 15 0
BBX 11 21 0 0
BITMAP
FFE0
FFE0
00E0
00C0
01C0
0180
0380
0300
0700
0600
0E00
0C00
1C00
1800
3800
3000
7000
6000
E000
FFE0
FFE0
ENDCHAR
STARTCHAR 005B
ENCODING 91
SWIDTH 526 0
DWIDTH 10 0
BBX 6 28 2 -3
BITMAP
FC
FC
E0
E0
E0
E0
E0
E0
E0
E0
E0
E0
E0
E0
E0
E0
E0
E0
E0
E0
E0
E0
E0
E0
E0
E0
FC
FC
ENDCHAR
STARTCHAR C111
ENCODING 92
SWIDTH 894 0
DWIDTH 17 0
BBX 14 24 -1 -2
BITMAP
E000
E000
7000
7000
3800
3800
1C00
1C00
0E00
0E00
0700
0700
0380
0380
01C0
01C0
00E0
00E0
0070
0070
0038
0038
001C
001C
ENDCHAR
STARTCHAR 005B
ENCODING 93
SWIDTH 526 0
DWIDTH 10 0
BBX 6 28 2 -3
BITMAP
FC
FC
1C
1C
1C
1C
1C
1C
1C
1C
1C
1C
1C
1C
1C
1C
1C
1C
1C
1C
1C
1C
1C
1C
1C
1C
FC
FC
ENDCHAR
STARTCHAR 005E
ENCODING 94
SWIDTH 789 0
DWIDTH 15 0
BBX 11 10 3 16
BITMAP
0E00
0E00
1F00
1B00
3B80
3180
71C0
60C0
E0E0
C060
ENDCHAR
STARTCHAR 005F
ENCODING 95
SWIDTH 842 0
DWIDTH 16 0
BBX 14 2 1 -4
BITMAP
FFFC
FFFC
ENDCHAR
STARTCHAR 0060
ENCODING 96
SWIDTH 473 0
DWIDTH 9 0
BBX 7 5 1 19
BITMAP
60
F8
FE
3E
0C
ENDCHAR
STARTCHAR C141
ENCODING 97
SWIDTH 894 0
DWIDTH 17 0
BBX 14 17 0 0
BITMAP
1FC0
7FF0
7070
0038
0038
0038
0FF8
3FF8
7838
7038
E038
E038
E038
E078
70F8
7FDC
1F0C
ENDCHAR
STARTCHAR C142
ENCODING 98
SWIDTH 947 0
DWIDTH 18 0
BBX 14 23 0 0
BITMAP
E000
E000
E000
E000
E000
E000
E7C0
EFF0
F878
F038
E03C
E01C
E01C
E01C
E01C
E01C
E01C
E01C
E03C
E038
F078
7FF0
3FC0
ENDCHAR
STARTCHAR C143
ENCODING 99
SWIDTH 842 0
DWIDTH 16 0
BBX 12 17 0 0
BITMAP
0FC0
3FF0
7870
7000
E000
E000
E000
E000
E000
E000
E000
E000
E000
7000
7870
3FF0
0FC0
ENDCHAR
STARTCHAR C144
ENCODING 100
SWIDTH 947 0
DWIDTH 18 0
BBX 14 23 0 0
BITMAP
001C
001C
001C
001C
001C
001C
0F9C
3FDC
787C
703C
F01C
E01C
E01C
E01C
E01C
E01C
E01C
E01C
F01C
703C
787C
3FDC
0F9C
ENDCHAR
STARTCHAR C145
ENCODING 101
SWIDTH 947 0
DWIDTH 18 0
BBX 14 17 0 0
BITMAP
0780
1FE0
3870
7038
7018
E01C
E01C
FFFC
FFFC
E000
E000
E000
7000
7018
3838
1FF0
07C0
ENDCHAR
STARTCHAR C146
ENCODING 102
SWIDTH 631 0
DWIDTH 12 0
BBX 11 23 -1 0
BITMAP
07E0
0FE0
0E00
1C00
1C00
1C00
1C00
FFC0
FFC0
1C00
1C00
1C00
1C00
1C00
1C00
1C00
1C00
1C00
1C00
1C00
1C00
1C00
1C00
ENDCHAR
STARTCHAR C147
ENCODING 103
SWIDTH 894 0
DWIDTH 17 0
BBX 15 24 -1 -6
BITMAP
000E
07FE
1FF0
3860
3030
7038
7038
7038
7030
3870
1FE0
1F80
3800
3000
3800
1FF0
0FFC
001E
000E
000E
E00E
F01C
7FF8
1FE0
ENDCHAR
STARTCHAR C150
ENCODING 104
SWIDTH 842 0
DWIDTH 16 0
BBX 12 23 0 0
BITMAP
E000
E000
E000
E000
E000
E000
E7C0
EFE0
F8F0
F070
E070
E070
E070
E070
E070
E070
E070
E070
E070
E070
E070
E070
E070
ENDCHAR
STARTCHAR C151
ENCODING 105
SWIDTH 368 0
DWIDTH 7 0
BBX 3 23 0 0
BITMAP
E0
E0
E0
00
00
00
E0
E0
E0
E0
E0
E0
E0
E0
E0
E0
E0
E0
E0
E0
E0
E0
E0
ENDCHAR
STARTCHAR C152
ENCODING 106
SWIDTH 368 0
DWIDTH 7 0
BBX 5 29 -2 -6
BITMAP
38
38
38
00
00
00
38
38
38
38
38
38
38
38
38
38
38
38
38
38
38
38
38
38
38
38
38
F0
E0
ENDCHAR
STARTCHAR C153
ENCODING 107
SWIDTH 842 0
DWIDTH 16 0
BBX 12 23 0 0
BITMAP
E000
E000
E000
E000
E000
E000
E030
E070
E0E0
E1C0
E380
E700
EE00
FC00
F800
FC00
EE00
E700
E380
E1C0
E0E0
E070
E030
ENDCHAR
STARTCHAR C154
ENCODING 108
SWIDTH 473 0
DWIDTH 9 0
BBX 6 23 0 0
BITMAP
E0
E0
E0
E0
E0
E0
E0
E0
E0
E0
E0
E0
E0
E0
E0
E0
E0
E0
E0
E0
F0
7C
3C
ENDCHAR
STARTCHAR C155
ENCODING 109
SWIDTH 1315 0
DWIDTH 25 0
BBX 21 17 0 0
BITMAP
E7C3E0
EFE7F0
F8FC78
F07838
E07038
E07038
E07038
E07038
E07038
E07038
E07038
E07038
E07038
E07038
E07038
E07038
E07038
ENDCHAR
STARTCHAR C156
ENCODING 110
SWIDTH 842 0
DWIDTH 16 0
BBX 12 17 0 0
BITMAP
E7C0
EFE0
F8F0
F070
E070
E070
E070
E070
E070
E070
E070
E070
E070
E070
E070
E070
E070
ENDCHAR
STARTCHAR C157
ENCODING 111
SWIDTH 947 0
DWIDTH 18 0
BBX 14 17 0 0
BITMAP
0780
1FE0
3870
7038
7038
E01C
E01C
E01C
E01C
E01C
E01C
E01C
7038
7038
3870
1FE0
0780
ENDCHAR
STARTCHAR C160
ENCODING 112
SWIDTH 947 0
DWIDTH 18 0
BBX 14 23 0 -6
BITMAP
E780
EFE0
F870
F038
E038
E01C
E01C
E01C
E01C
E01C
E01C
E01C
E038
F038
F870
EFE0
E780
E000
E000
E000
E000
E000
E000
ENDCHAR
STARTCHAR C161
ENCODING 113
SWIDTH 947 0
DWIDTH 18 0
BBX 14 23 0 -6
BITMAP
07F0
1FF8
383C
701C
701C
E01C
E01C
E01C
E01C
E01C
E01C
E01C
701C
703C
387C
1FDC
079C
001C
001C
001C
001C
001C
001C
ENDCHAR
STARTCHAR C162
ENCODING 114
SWIDTH 578 0
DWIDTH 11 0
BBX 8 17 0 0
BITMAP
E7
EF
F8
F0
E0
E0
E0
E0
E0
E0
E0
E0
E0
E0
E0
E0
E0
ENDCHAR
STARTCHAR C163
ENCODING 115
SWIDTH 789 0
DWIDTH 15 0
BBX 12 17 0 0
BITMAP
1F80
7FE0
70E0
E000
E000
E000
7000
7F80
1FE0
00E0
0070
0070
0070
0070
E0E0
FFE0
3F80
ENDCHAR
STARTCHAR C164
ENCODING 116
SWIDTH 684 0
DWIDTH 13 0
BBX 10 21 -1 0
BITMAP
1C00
1C00
1C00
1C00
FFC0
FFC0
1C00
1C00
1C00
1C00
1C00
1C00
1C00
1C00
1C00
1C00
1C00
1C00
1E00
0FC0
07C0
ENDCHAR
STARTCHAR C165
ENCODING 117
SWIDTH 842 0
DWIDTH 16 0
BBX 12 17 0 0
BITMAP
E070
E070
E070
E070
E070
E070
E070
E070
E070
E070
E070
E070
E070
E0F0
F1F0
7F70
3E70
ENDCHAR
STARTCHAR C166
ENCODING 118
SWIDTH 894 0
DWIDTH 17 0
BBX 13 17 0 0
BITMAP
E038
E038
E038
7070
7070
7070
3060
38E0
38E0
18C0
1DC0
1DC0
0D80
0F80
0F80
0700
0700
ENDCHAR
STARTCHAR C167
ENCODING 119
SWIDTH 1105 0
DWIDTH 21 0
BBX 19 17 -1 0
BITMAP
E0E0E0
E0E0E0
E0E0E0
E0E0E0
60E0C0
71F1C0
71F1C0
71B1C0
31B180
31B180
3BBB80
3BBB80
3B1B80
1B1B00
1F1F00
1F1F00
1F1F00
ENDCHAR
STARTCHAR C170
ENCODING 120
SWIDTH 789 0
DWIDTH 15 0
BBX 11 17 0 0
BITMAP
E0E0
71C0
71C0
3B80
3B80
1F00
1F00
0E00
0E00
1F00
1F00
3B80
3B80
71C0
71C0
E0E0
E0E0
ENDCHAR
STARTCHAR C171
ENCODING 121
SWIDTH 894 0
DWIDTH 17 0
BBX 13 23 0 -6
BITMAP
E038
E038
E038
7070
7070
7070
38E0
38E0
38E0
1DC0
1DC0
1DC0
0F80
0F80
0F80
0700
0700
0700
0600
0E00
1C00
7C00
7000
ENDCHAR
STARTCHAR C172
ENCODING 122
SWIDTH 789 0
DWIDTH 15 0
BBX 11 17 0 0
BITMAP
FFE0
FFE0
00E0
01C0
01C0
0380
0380
0700
0E00
0E00
1C00
3800
3800
7000
E000
FFE0
FFE0
ENDCHAR
STARTCHAR C224
ENCODING 148
SWIDTH 894 0
DWIDTH 17 0
BBX 0 0 0 0
BITMAP
ENDCHAR
STARTCHAR C260
ENCODING 176
SWIDTH 1263 0
DWIDTH 24 0
BBX 10 10 0 11
BITMAP
1E00
7F80
7380
E1C0
E1C0
E1C0
E1C0
73C0
7F80
1E00
ENDCHAR
STARTCHAR 002B
ENCODING 177
SWIDTH 894 0
DWIDTH 17 0
BBX 13 17 0 1
BITMAP
0700
0700
0700
0700
0700
FFF8
FFF8
FFF8
0700
0700
0700
0700
0700
0000
FFF8
FFF8
FFF8
ENDCHAR
STARTCHAR C260
ENCODING 178
SWIDTH 526 0
DWIDTH 10 0
BBX 7 10 0 11
BITMAP
7C
FE
C6
0E
1C
38
70
E0
FE
FE
ENDCHAR
STARTCHAR C265
ENCODING 181
SWIDTH 842 0
DWIDTH 16 0
BBX 12 23 0 -6
BITMAP
E070
E070
E070
E070
E070
E070
E070
E070
E070
E070
E070
E070
E070
E0F0
F1F0
FF70
EE70
E000
E000
E000
E000
E000
E000
ENDCHAR
STARTCHAR D7
ENCODING 215
SWIDTH 684 0
DWIDTH 13 0
BBX 9 9 0 4
BITMAP
C180
E380
7700
3E00
1C00
3E00
7700
E380
C180
ENDCHAR
STARTCHAR C055
ENCODING 8211
SWIDTH 789 0
DWIDTH 15 0
BBX 12 2 0 9
BITMAP
FFF0
FFF0
ENDCHAR
STARTCHAR C055
ENCODING 8212
SWIDTH 1157 0
DWIDTH 22 0
BBX 19 2 0 9
BITMAP
FFFFE0
FFFFE0
ENDCHAR
STARTCHAR C111
ENCODING 8216
SWIDTH 421 0
DWIDTH 8 0
BBX 4 7 0 14
BITMAP
30
70
E0
E0
E0
E0
E0
ENDCHAR
STARTCHAR C111
ENCODING 8217
SWIDTH 421 0
DWIDTH 8 0
BBX 4 7 0 14
BITMAP
70
70
70
70
70
E0
C0
ENDCHAR
STARTCHAR C111
ENCODING 8220
SWIDTH 684 0
DWIDTH 13 0
BBX 9 7 0 14
BITMAP
3180
7380
E700
E700
E700
E700
E700
ENDCHAR
STARTCHAR C111
ENCODING 8221
SWIDTH 684 0
DWIDTH 13 0
BBX 9 7 0 14
BITMAP
7380
7380
7380
7380
7380
E700
C600
ENDCHAR
STARTCHAR C056
ENCODING 8230
SWIDTH 1578 0
DWIDTH 30 0
BBX 26 4 2 0
BITMAP
600C0180
F01E03C0
F01E03C0
600C0180
ENDCHAR
ENDFONT
